<svg width="24" height="24" viewBox="0 0 24 24" fill="none" xmlns="http://www.w3.org/2000/svg">
<path d="M18.4484 22C18.3287 22 18.214 21.9772 18.1043 21.9316C17.9946 21.8861 17.8932 21.8145 17.8 21.717L12.7852 16.466C12.6921 16.3685 12.6237 16.2623 12.5802 16.1474C12.5367 16.0326 12.5149 15.9125 12.5149 15.7871C12.5149 15.6617 12.5367 15.5395 12.5802 15.4205C12.6237 15.3015 12.6921 15.1933 12.7852 15.0957L14.5943 13.1973C14.6875 13.0998 14.7895 13.0262 14.9005 12.9764C15.0116 12.9267 15.1296 12.9018 15.2546 12.9018C15.3743 12.9018 15.4897 12.9267 15.6007 12.9764C15.7117 13.0262 15.8138 13.0998 15.9069 13.1973L20.9218 18.4607C21.0149 18.5582 21.0846 18.663 21.1308 18.7751C21.1769 18.8872 21.2 19.0087 21.2 19.1396C21.2 19.265 21.1749 19.3871 21.1248 19.5061C21.0747 19.6251 21.0057 19.7307 20.9178 19.8227L19.1087 21.7169C19.0156 21.8145 18.9135 21.886 18.8025 21.9316C18.6915 21.9772 18.5735 22 18.4484 22ZM18.4603 19.8998L19.1863 19.1396L15.2497 15.0094L14.5237 15.7696L18.4603 19.8998ZM5.80603 21.9949C5.6863 21.9949 5.56809 21.973 5.45139 21.9291C5.33471 21.8852 5.22979 21.8145 5.13665 21.7169L3.34457 19.8447C3.25144 19.7527 3.18392 19.6476 3.14201 19.5296C3.1001 19.4116 3.07914 19.2871 3.07914 19.1562C3.07914 19.0308 3.1001 18.9087 3.14201 18.7897C3.18392 18.6707 3.25145 18.5624 3.34459 18.4648L8.28027 13.3051H10.1883L10.9189 12.5401L7.15487 8.59889H5.87849L3 5.58902L5.48214 2.99415L8.35669 6.00403V7.3405L12.1207 11.2817L14.7928 8.48382L13.4902 7.11577L14.6625 5.89659H12.293L11.7222 5.29068L14.8531 2L15.4357 2.61836V5.09114L16.608 3.85953L20.2457 7.68093C20.4835 7.93549 20.6723 8.22511 20.8122 8.5498C20.952 8.87449 21.0219 9.2182 21.0219 9.58092C21.0219 9.94897 20.9534 10.302 20.8164 10.6401C20.6795 10.9782 20.4968 11.2814 20.2685 11.5498L18.3605 9.55191L17.1051 10.8705L16.0196 9.72977L11.3901 14.5772V16.5613L6.45442 21.7169C6.36128 21.8145 6.26118 21.8852 6.15413 21.9291C6.04708 21.973 5.93104 21.9949 5.80603 21.9949ZM5.80603 19.904L9.92744 15.5968V14.8366H9.20141L5.08002 19.1438L5.80603 19.904ZM5.80603 19.904L5.08002 19.1438L5.45354 19.5129L5.80603 19.904Z" fill="#A4B0C3"/>
</svg>
