<svg width="20" height="20" viewBox="0 0 20 20" fill="none" xmlns="http://www.w3.org/2000/svg">
<path d="M11.7641 20H8.23175C8.0213 20 7.83644 19.9333 7.67718 19.8C7.5179 19.6667 7.4212 19.4972 7.38707 19.2917L7.01167 16.8333C6.72156 16.7278 6.42435 16.5889 6.12005 16.4167C5.81572 16.2444 5.54127 16.0639 5.29669 15.875L2.96742 16.8917C2.76264 16.975 2.55787 16.9861 2.3531 16.925C2.14833 16.8639 1.98906 16.7361 1.87529 16.5417L0.117692 13.5167C0.00392484 13.3333 -0.0273625 13.1389 0.0238303 12.9333C0.0750231 12.7278 0.185941 12.5611 0.356583 12.4334L2.46404 10.9084C2.43559 10.7695 2.41853 10.6181 2.41284 10.4542C2.40714 10.2903 2.40429 10.1389 2.40429 10C2.40429 9.86112 2.40714 9.70973 2.41284 9.54583C2.41853 9.38194 2.43559 9.23055 2.46404 9.09165L0.356583 7.56665C0.185941 7.43888 0.0750231 7.27222 0.0238303 7.06665C-0.0273625 6.8611 0.00392484 6.66666 0.117692 6.48333L1.87529 3.45833C1.98338 3.25833 2.14122 3.12916 2.34883 3.07083C2.55645 3.01249 2.76264 3.02499 2.96742 3.10833L5.29669 4.125C5.54127 3.93612 5.81715 3.75556 6.12432 3.58333C6.43148 3.41111 6.72726 3.27778 7.01167 3.18333L7.38707 0.708325C7.4212 0.502775 7.5179 0.333333 7.67718 0.2C7.83644 0.0666667 8.0213 0 8.23175 0H11.7641C11.9745 0 12.1594 0.0666667 12.3186 0.2C12.4779 0.333333 12.5746 0.502775 12.6087 0.708325L12.9841 3.16667C13.2742 3.27222 13.5743 3.40833 13.8843 3.575C14.1943 3.74167 14.4659 3.925 14.6991 4.125L17.0284 3.10833C17.2332 3.02499 17.4379 3.01388 17.6427 3.075C17.8475 3.13612 18.0067 3.26389 18.1205 3.45833L19.8781 6.46667C19.9919 6.64999 20.026 6.84721 19.9805 7.05833C19.935 7.26944 19.8212 7.43888 19.6392 7.56665L17.5318 9.05833C17.5602 9.20833 17.5773 9.36528 17.583 9.52917C17.5887 9.69306 17.5915 9.85 17.5915 10C17.5915 10.15 17.5887 10.3042 17.583 10.4625C17.5773 10.6208 17.5574 10.775 17.5232 10.925L19.6307 12.4334C19.8013 12.5611 19.9122 12.7278 19.9634 12.9333C20.0146 13.1389 19.9833 13.3333 19.8696 13.5167L18.112 16.5333C17.9982 16.7278 17.8375 16.8569 17.6299 16.9208C17.4223 16.9847 17.2161 16.975 17.0113 16.8917L14.6991 15.875C14.4545 16.0639 14.1815 16.2472 13.88 16.425C13.5786 16.6028 13.2799 16.7389 12.9841 16.8333L12.6087 19.2917C12.5746 19.4972 12.4779 19.6667 12.3186 19.8C12.1594 19.9333 11.9745 20 11.7641 20ZM10.015 13.3333C10.9592 13.3333 11.7641 13.0083 12.4296 12.3583C13.0951 11.7083 13.4278 10.9222 13.4278 10C13.4278 9.07778 13.0951 8.29167 12.4296 7.64167C11.7641 6.99167 10.9592 6.66668 10.015 6.66668C9.06506 6.66668 8.25877 6.99167 7.59611 7.64167C6.93344 8.29167 6.6021 9.07778 6.6021 10C6.6021 10.9222 6.93344 11.7083 7.59611 12.3583C8.25877 13.0083 9.06506 13.3333 10.015 13.3333ZM10.015 11.6667C9.54286 11.6667 9.14042 11.5042 8.80767 11.1792C8.47492 10.8542 8.30854 10.4611 8.30854 10C8.30854 9.53888 8.47492 9.14583 8.80767 8.82083C9.14042 8.49583 9.54286 8.33333 10.015 8.33333C10.4871 8.33333 10.8895 8.49583 11.2223 8.82083C11.555 9.14583 11.7214 9.53888 11.7214 10C11.7214 10.4611 11.555 10.8542 11.2223 11.1792C10.8895 11.5042 10.4871 11.6667 10.015 11.6667ZM8.90578 18.3333H11.0815L11.4398 15.5834C11.9916 15.45 12.5106 15.2458 12.997 14.9708C13.4833 14.6958 13.9255 14.3639 14.3237 13.975L16.9772 15.0834L17.9925 13.3167L15.6547 11.625C15.7287 11.3583 15.7855 11.0903 15.8254 10.8208C15.8652 10.5514 15.8851 10.2778 15.8851 10C15.8851 9.72222 15.868 9.44861 15.8339 9.17918C15.7998 8.90973 15.74 8.64167 15.6547 8.375L17.9925 6.68333L16.9772 4.91665L14.3237 6.03333C13.9369 5.61666 13.5032 5.26805 13.0225 4.9875C12.5419 4.70693 12.0143 4.51665 11.4398 4.41665L11.09 1.66665H8.91433L8.55598 4.41665C7.99286 4.53888 7.46812 4.7375 6.98177 5.0125C6.49544 5.2875 6.05889 5.625 5.67211 6.025L3.01861 4.91665L2.00328 6.68333L4.3411 8.36668C4.26714 8.63889 4.21026 8.90833 4.17045 9.175C4.13064 9.44167 4.11073 9.71667 4.11073 10C4.11073 10.2778 4.13064 10.55 4.17045 10.8167C4.21026 11.0833 4.26714 11.3528 4.3411 11.625L2.00328 13.3167L3.01861 15.0834L5.67211 13.9667C6.07027 14.3611 6.51252 14.6958 6.99885 14.9708C7.48518 15.2458 8.00422 15.45 8.55598 15.5834L8.90578 18.3333Z" fill="#A4B0C3"/>
</svg>
