<svg width="24" height="24" viewBox="0 0 24 24" fill="none" xmlns="http://www.w3.org/2000/svg">
<path d="M9.05362 17.645H14.9509C15.1973 17.645 15.4039 17.5593 15.5706 17.3881C15.7374 17.2168 15.8207 17.0045 15.8207 16.7513C15.8207 16.502 15.7374 16.2936 15.5706 16.1261C15.4039 15.9586 15.1973 15.8749 14.9509 15.8749H9.04015C8.7937 15.8749 8.58711 15.9593 8.42037 16.128C8.25364 16.2968 8.17028 16.5058 8.17028 16.7553C8.17028 17.0047 8.25494 17.2153 8.42425 17.3872C8.59356 17.5591 8.80335 17.645 9.05362 17.645ZM9.05362 13.6387H14.9509C15.1973 13.6387 15.4039 13.5531 15.5706 13.3818C15.7374 13.2105 15.8207 12.9982 15.8207 12.745C15.8207 12.4957 15.7374 12.2873 15.5706 12.1198C15.4039 11.9524 15.1973 11.8687 14.9509 11.8687H9.04015C8.7937 11.8687 8.58711 11.953 8.42037 12.1218C8.25364 12.2905 8.17028 12.4996 8.17028 12.749C8.17028 12.9984 8.25494 13.2091 8.42425 13.3809C8.59356 13.5528 8.80335 13.6387 9.05362 13.6387ZM6.09862 22C5.52023 22 5.02587 21.7929 4.61552 21.3786C4.20517 20.9643 4 20.4651 4 19.8812V4.12788C4 3.54144 4.20517 3.04019 4.61552 2.62411C5.02587 2.20804 5.52023 2 6.09862 2H13.5165C13.803 2 14.0761 2.05708 14.3357 2.17124C14.5954 2.28539 14.8221 2.44024 15.0158 2.63579L19.3703 7.03222C19.564 7.22777 19.7173 7.45662 19.8304 7.71878C19.9435 7.98091 20 8.25662 20 8.54589V19.8812C20 20.4651 19.7939 20.9643 19.3818 21.3786C18.9697 21.7929 18.4733 22 17.8924 22H6.09862ZM13.3053 7.65162V4.12788H6.09862V19.8812H17.8924V8.71102H14.3546C14.061 8.71102 13.8127 8.60857 13.6097 8.40368C13.4068 8.19877 13.3053 7.94808 13.3053 7.65162Z" fill="#A4B0C3"/>
</svg>
