<svg width="24" height="24" viewBox="0 0 24 24" fill="none" xmlns="http://www.w3.org/2000/svg">
<path d="M5.60653 17.4695C6.64711 16.7551 7.67935 16.2067 8.70325 15.8244C9.72717 15.4422 10.8281 15.2511 12.0062 15.2511C13.1842 15.2511 14.2916 15.4458 15.3284 15.8353C16.3652 16.2248 17.3952 16.7695 18.4185 17.4695C19.133 16.5601 19.6373 15.6685 19.9315 14.7946C20.2257 13.9208 20.3728 12.9892 20.3728 12C20.3728 9.62812 19.5706 7.63967 17.9661 6.03467C16.3615 4.42967 14.3737 3.62717 12.0025 3.62717C9.63126 3.62717 7.64258 4.42967 6.03643 6.03467C4.43026 7.63967 3.62718 9.62812 3.62718 12C3.62718 12.9884 3.77622 13.9184 4.0743 14.79C4.37239 15.6616 4.88313 16.5548 5.60653 17.4695ZM11.9954 12.8489C11.002 12.8489 10.1695 12.5111 9.4978 11.8356C8.82609 11.16 8.49023 10.3287 8.49023 9.34155C8.49023 8.35443 8.82764 7.52228 9.50245 6.8451C10.1773 6.16793 11.0113 5.82935 12.0047 5.82935C12.998 5.82935 13.8305 6.16948 14.5022 6.84975C15.1739 7.53003 15.5098 8.36373 15.5098 9.35085C15.5098 10.338 15.1724 11.1678 14.4976 11.8402C13.8227 12.5127 12.9887 12.8489 11.9954 12.8489ZM12.0035 22.3533C10.5874 22.3533 9.25035 22.0823 7.99233 21.5405C6.73433 20.9986 5.63323 20.2557 4.68903 19.3117C3.74483 18.3677 3.00173 17.2684 2.45973 16.0138C1.91773 14.7592 1.64673 13.4186 1.64673 11.9922C1.64673 10.5764 1.91865 9.24076 2.46248 7.98532C3.00633 6.72989 3.7489 5.63151 4.6902 4.6902C5.63152 3.7489 6.7297 3.00397 7.98475 2.45542C9.23982 1.90687 10.5808 1.6326 12.0078 1.6326C13.4236 1.6326 14.7592 1.90687 16.0147 2.45542C17.2701 3.00397 18.3685 3.7489 19.3098 4.6902C20.2511 5.63151 20.996 6.73055 21.5446 7.9873C22.0931 9.24405 22.3674 10.5805 22.3674 11.9965C22.3674 13.4126 22.0931 14.7502 21.5446 16.0092C20.996 17.2683 20.2511 18.3685 19.3098 19.3098C18.3685 20.2511 17.2695 20.9937 16.0127 21.5375C14.756 22.0814 13.4195 22.3533 12.0035 22.3533ZM12 20.3728C12.8884 20.3728 13.7466 20.2489 14.5745 20.0011C15.4024 19.7533 16.2413 19.3101 17.0913 18.6717C16.2319 18.0812 15.3888 17.6393 14.562 17.3462C13.7352 17.0531 12.8812 16.9065 12 16.9065C11.1188 16.9065 10.2672 17.0531 9.44513 17.3462C8.62303 17.6393 7.78226 18.0812 6.92283 18.6717C7.77283 19.3101 8.60943 19.7533 9.43263 20.0011C10.2558 20.2489 11.1116 20.3728 12 20.3728ZM12 11.1793C12.5372 11.1793 12.9781 11.0096 13.323 10.6701C13.6678 10.3306 13.8402 9.88932 13.8402 9.3462C13.8402 8.80308 13.6678 8.35942 13.323 8.01522C12.9781 7.67102 12.5372 7.49892 12 7.49892C11.4629 7.49892 11.0219 7.67102 10.677 8.01522C10.3322 8.35942 10.1598 8.80308 10.1598 9.3462C10.1598 9.88932 10.3322 10.3306 10.677 10.6701C11.0219 11.0096 11.4629 11.1793 12 11.1793Z" fill="#A4B0C3"/>
</svg>
