<svg width="24" height="24" viewBox="0 0 24 24" fill="none" xmlns="http://www.w3.org/2000/svg">
<path d="M15.9433 16.4881C15.7174 16.2538 15.6044 15.9778 15.6044 15.6601C15.6044 15.3425 15.7174 15.0728 15.9433 14.8511L17.7297 13.0653H10.1223C9.79751 13.0653 9.52283 12.9528 9.29831 12.7278C9.07381 12.5028 8.96156 12.2275 8.96156 11.9019C8.96156 11.5763 9.07381 11.302 9.29831 11.079C9.52283 10.8561 9.79751 10.7446 10.1223 10.7446H17.6946L15.8758 8.9264C15.659 8.71538 15.553 8.45262 15.558 8.13811C15.563 7.82361 15.6809 7.55183 15.912 7.32277C16.1315 7.09372 16.4042 6.98085 16.7301 6.98415C17.056 6.98745 17.332 7.10205 17.558 7.32795L21.341 11.1098C21.4572 11.2276 21.5428 11.3562 21.5977 11.4954C21.6526 11.6346 21.68 11.7782 21.68 11.9259C21.68 12.0737 21.6526 12.2162 21.5977 12.3534C21.5428 12.4906 21.4572 12.6179 21.341 12.7353L17.5606 16.5144C17.338 16.737 17.0709 16.8447 16.7594 16.8376C16.448 16.8305 16.1759 16.714 15.9433 16.4881ZM4.33149 21.8C3.68894 21.8 3.13972 21.5731 2.68383 21.1193C2.22794 20.6655 2 20.1188 2 19.4792V4.33069C2 3.68836 2.22794 3.13933 2.68383 2.6836C3.13972 2.22787 3.68894 2 4.33149 2H10.8575C11.1823 2 11.457 2.11446 11.6815 2.34338C11.906 2.57228 12.0183 2.84924 12.0183 3.17426C12.0183 3.49928 11.906 3.77327 11.6815 3.99624C11.457 4.21921 11.1823 4.33069 10.8575 4.33069H4.33149V19.4792H10.8575C11.1823 19.4792 11.457 19.5917 11.6815 19.8168C11.906 20.0418 12.0183 20.3171 12.0183 20.6427C12.0183 20.9683 11.906 21.2426 11.6815 21.4655C11.457 21.6885 11.1823 21.8 10.8575 21.8H4.33149Z" fill="#211D26"/>
</svg>
