<svg width="24" height="24" viewBox="0 0 24 24" fill="none" xmlns="http://www.w3.org/2000/svg">
<path d="M4.78901 18.9662H5.80823L16.0207 9.04032L15.0015 8.05201L4.78901 17.9779V18.9662ZM19.8407 7.88174L16.2022 4.36524L17.3082 3.2789C17.6609 2.93692 18.0927 2.76557 18.6037 2.76485C19.1146 2.76415 19.5613 2.93996 19.9436 3.29229L20.9745 4.27814C21.3569 4.63662 21.5382 5.06046 21.5185 5.54967C21.4988 6.03889 21.3138 6.45333 20.9635 6.79298L19.8407 7.88174ZM4.03556 20.7648C3.72334 20.7648 3.45934 20.6603 3.24357 20.4511C3.02781 20.2419 2.91992 19.986 2.91992 19.6833V17.6773C2.91992 17.5343 2.94742 17.3985 3.00242 17.2697C3.05743 17.141 3.14079 17.0225 3.25249 16.9142L15.0099 5.5132L18.6627 9.03219L6.90523 20.4424C6.79353 20.5507 6.6677 20.6315 6.52775 20.6848C6.38782 20.7382 6.24691 20.7648 6.10501 20.7648H4.03556ZM15.5254 8.54618L15.0015 8.05201L16.0207 9.04032L15.5254 8.54618Z" fill="black"/>
</svg>
