<svg width="24" height="24" viewBox="0 0 24 24" fill="none" xmlns="http://www.w3.org/2000/svg">
<path d="M4.5 19.7186H8.25V12.8598H15.75V19.7186H19.5V9.43039L12 4.28627L4.5 9.43039V19.7186ZM4.5 22.0049C3.8125 22.0049 3.22396 21.781 2.73438 21.3333C2.24479 20.8856 2 20.3473 2 19.7186V9.43039C2 9.0684 2.08854 8.72546 2.26562 8.40157C2.44271 8.07768 2.6875 7.81095 3 7.60137L10.5 2.45725C10.7292 2.30484 10.9688 2.19052 11.2188 2.11431C11.4688 2.0381 11.7292 2 12 2C12.2708 2 12.5312 2.0381 12.7812 2.11431C13.0312 2.19052 13.2708 2.30484 13.5 2.45725L21 7.60137C21.3125 7.81095 21.5573 8.07768 21.7344 8.40157C21.9115 8.72546 22 9.0684 22 9.43039V19.7186C22 20.3473 21.7552 20.8856 21.2656 21.3333C20.776 21.781 20.1875 22.0049 19.5 22.0049H13.25V15.1461H10.75V22.0049H4.5Z" fill="#A4B0C3"/>
</svg>
