<svg width="100" height="95" viewBox="0 0 100 95" fill="none" xmlns="http://www.w3.org/2000/svg">
<path d="M87.8455 10.501C82.8102 8.62128 69.2237 17.6158 49.9997 27.5417C40.2909 41.7037 40.9735 49.8142 49.9997 64.4961L87.8455 10.501Z" fill="#3146D0"/>
<path d="M89.9993 47.5848V15.0146C90.0262 12.4656 89.2856 11.0385 87.8455 10.501L49.9997 64.4961C60.9275 50.1221 69.0404 45.3514 89.9993 47.5848Z" fill="#1E35C6"/>
<path d="M10 47.5848C28.8948 46.2857 38.3867 48.217 49.9997 64.4961L11.8461 10.3521C10.6119 10.9802 10.0107 12.4721 10 15.0146V47.5848Z" fill="#677BEC"/>
<path d="M49.9997 27.5417C28.2782 16.563 16.1726 8.15036 11.8461 10.3521L49.9997 64.4961C40.9735 49.8142 40.2909 41.7037 49.9997 27.5417Z" fill="#4F63D7"/>
<path d="M89.9993 47.5848C69.0404 45.3514 60.9275 50.1221 49.9997 64.4961C53.774 73.8405 54.5285 81.9853 49.9997 84.9904C53.3946 85.1668 56.6235 82.919 60.7688 78.5885L89.9993 47.5848Z" fill="#A4B0C3"/>
<path d="M49.9997 64.4961C38.3867 48.217 28.8948 46.2857 10 47.5848L39.8459 78.5885C43.8606 82.7791 46.9951 84.8342 49.9997 84.9904C54.5285 81.9853 53.774 73.8405 49.9997 64.4961Z" fill="#DCE1EB"/>
</svg>
