<svg width="24" height="24" viewBox="0 0 24 24" fill="none" xmlns="http://www.w3.org/2000/svg">
<path d="M13.9991 22H10.4668C10.2563 22 10.0715 21.9333 9.91222 21.8C9.75295 21.6667 9.65624 21.4972 9.62211 21.2917L9.24672 18.8333C8.95661 18.7278 8.6594 18.5889 8.35509 18.4167C8.05077 18.2444 7.77632 18.0639 7.53173 17.875L5.20246 18.8917C4.99769 18.975 4.79292 18.9861 4.58815 18.925C4.38338 18.8639 4.22411 18.7361 4.11034 18.5417L2.35274 15.5167C2.23897 15.3333 2.20768 15.1389 2.25888 14.9334C2.31007 14.7278 2.42099 14.5611 2.59163 14.4334L4.69908 12.9084C4.67064 12.7695 4.65357 12.6181 4.64789 12.4542C4.64219 12.2903 4.63934 12.1389 4.63934 12C4.63934 11.8611 4.64219 11.7097 4.64789 11.5458C4.65357 11.3819 4.67064 11.2306 4.69908 11.0917L2.59163 9.56665C2.42099 9.43888 2.31007 9.27222 2.25888 9.06665C2.20768 8.8611 2.23897 8.66666 2.35274 8.48333L4.11034 5.45833C4.21843 5.25833 4.37627 5.12916 4.58387 5.07083C4.79149 5.01249 4.99769 5.02499 5.20246 5.10833L7.53173 6.125C7.77632 5.93612 8.05219 5.75556 8.35937 5.58333C8.66652 5.41111 8.96231 5.27778 9.24672 5.18333L9.62211 2.70833C9.65624 2.50278 9.75295 2.33333 9.91222 2.2C10.0715 2.06667 10.2563 2 10.4668 2H13.9991C14.2096 2 14.3944 2.06667 14.5537 2.2C14.7129 2.33333 14.8097 2.50278 14.8438 2.70833L15.2192 5.16668C15.5093 5.27223 15.8093 5.40833 16.1193 5.575C16.4293 5.74167 16.7009 5.925 16.9342 6.125L19.2634 5.10833C19.4682 5.02499 19.673 5.01388 19.8777 5.075C20.0825 5.13612 20.2418 5.26389 20.3556 5.45833L22.1132 8.46668C22.2269 8.64999 22.2611 8.84721 22.2155 9.05833C22.17 9.26944 22.0563 9.43888 21.8743 9.56665L19.7668 11.0583C19.7953 11.2083 19.8123 11.3653 19.818 11.5292C19.8237 11.6931 19.8266 11.85 19.8266 12C19.8266 12.15 19.8237 12.3042 19.818 12.4625C19.8123 12.6208 19.7924 12.775 19.7583 12.925L21.8657 14.4334C22.0364 14.5611 22.1473 14.7278 22.1985 14.9334C22.2497 15.1389 22.2184 15.3333 22.1046 15.5167L20.347 18.5333C20.2333 18.7278 20.0726 18.8569 19.8649 18.9208C19.6573 18.9847 19.4511 18.975 19.2464 18.8917L16.9342 17.875C16.6896 18.0639 16.4166 18.2472 16.1151 18.425C15.8136 18.6028 15.515 18.7389 15.2192 18.8333L14.8438 21.2917C14.8097 21.4972 14.7129 21.6667 14.5537 21.8C14.3944 21.9333 14.2096 22 13.9991 22ZM12.25 15.3333C13.1942 15.3333 13.9991 15.0083 14.6646 14.3583C15.3301 13.7083 15.6629 12.9222 15.6629 12C15.6629 11.0778 15.3301 10.2917 14.6646 9.64168C13.9991 8.99168 13.1942 8.66668 12.25 8.66668C11.3001 8.66668 10.4938 8.99168 9.83116 9.64168C9.16849 10.2917 8.83715 11.0778 8.83715 12C8.83715 12.9222 9.16849 13.7083 9.83116 14.3583C10.4938 15.0083 11.3001 15.3333 12.25 15.3333ZM12.25 13.6667C11.7779 13.6667 11.3755 13.5042 11.0427 13.1792C10.71 12.8542 10.5436 12.4611 10.5436 12C10.5436 11.5389 10.71 11.1458 11.0427 10.8208C11.3755 10.4958 11.7779 10.3333 12.25 10.3333C12.7221 10.3333 13.1245 10.4958 13.4573 10.8208C13.7901 11.1458 13.9564 11.5389 13.9564 12C13.9564 12.4611 13.7901 12.8542 13.4573 13.1792C13.1245 13.5042 12.7221 13.6667 12.25 13.6667ZM11.1408 20.3334H13.3165L13.6749 17.5834C14.2266 17.45 14.7457 17.2459 15.232 16.9709C15.7183 16.6959 16.1606 16.3639 16.5587 15.975L19.2122 17.0834L20.2276 15.3167L17.8898 13.625C17.9637 13.3583 18.0206 13.0903 18.0604 12.8208C18.1002 12.5514 18.1201 12.2778 18.1201 12C18.1201 11.7222 18.1031 11.4486 18.0689 11.1792C18.0348 10.9097 17.9751 10.6417 17.8898 10.375L20.2276 8.68333L19.2122 6.91665L16.5587 8.03333C16.172 7.61666 15.7382 7.26805 15.2576 6.9875C14.7769 6.70693 14.2494 6.51665 13.6749 6.41665L13.3251 3.66665H11.1494L10.791 6.41665C10.2279 6.53888 9.70317 6.7375 9.21682 7.0125C8.73049 7.2875 8.29394 7.625 7.90716 8.025L5.25365 6.91665L4.23832 8.68333L6.57614 10.3667C6.50219 10.6389 6.4453 10.9083 6.40549 11.175C6.36568 11.4417 6.34578 11.7167 6.34578 12C6.34578 12.2778 6.36568 12.55 6.40549 12.8167C6.4453 13.0833 6.50219 13.3528 6.57614 13.625L4.23832 15.3167L5.25365 17.0834L7.90716 15.9667C8.30532 16.3611 8.74756 16.6959 9.23389 16.9709C9.72023 17.2459 10.2393 17.45 10.791 17.5834L11.1408 20.3334Z" fill="#211D26"/>
</svg>
