<svg width="167" height="27" viewBox="0 0 167 27" fill="none" xmlns="http://www.w3.org/2000/svg">
<path d="M165.894 3.00033C152.894 -0.99958 143.894 1.50043 143.894 9.00032C144.101 12.2527 146.597 13.9945 147.894 14.5004C147.894 14.5004 151.394 15.5004 156.394 16.0004C161.394 16.5004 160.894 20.5004 156.394 20.5004C151.894 20.5004 145.894 18.5004 145.894 18.5004L143.394 23.0004C147.969 25.3629 149.645 25.9262 154.394 26.0004C161.615 26.3925 166.394 23.0004 166.394 18.0004C166.394 13.0004 159.394 10.4917 153.894 10.4917C148.394 10.4917 149.894 6.00043 153.894 6.00043C157.894 6.00043 159.406 6.87115 162.894 8.00031L165.894 3.00033Z" fill="#A4B0C3"/>
<path d="M121.394 26.0005V20.0005H128.894V7.00049H121.394V1.00049H140.894V7.00049H133.894V20.0005H141.394V26.0005H121.394Z" fill="#A4B0C3"/>
<path d="M103.394 26.0002H97.3941V5.00021C97.3941 -1.00007 101.894 0.999928 103.394 3.00022L113.394 14.4999V1.49993H119.394V22.0004C119.394 28.0004 114.894 25.0004 113.394 23.5004C111.894 22.0004 103.394 12.4999 103.394 12.4999V26.0002Z" fill="#A4B0C3"/>
<path d="M75.3941 20V26H79C84.631 26 85.021 19.4487 85.4017 13.0534C85.7646 6.95576 86.1191 1 91 1H75.3941V7H82.8941V20H75.3941Z" fill="#DCE1EB"/>
<path d="M94.8941 7V1H91C86.1191 1 85.7646 6.95576 85.4017 13.0534C85.021 19.4487 84.631 26 79 26H94.8941V20H87.8941V7H94.8941Z" fill="#A4B0C3"/>
<path fill-rule="evenodd" clip-rule="evenodd" d="M64.0192 1.05532C76.5191 1.05535 76.5191 25.5553 64.0192 25.5553C51.5193 25.5553 52.519 26.0558 52.519 19.5554V6.55538C52.519 0.0557008 51.5193 1.0553 64.0192 1.05532ZM63 19.5554C69.9054 19.6062 69.9678 6.54751 63 6.5C62.6001 6.50018 59.5193 6.55545 57.5193 6.55538V19.5556L63 19.5554Z" fill="#DCE1EB"/>
<path fill-rule="evenodd" clip-rule="evenodd" d="M29.5303 25.9988C29.5303 25.9988 29.484 26.388 29.5303 13.3686C29.5767 0.349193 28.0065 2.17755 42.3625 2.00146C49.2073 2.09295 54.5688 11.1582 45.4924 18.4206L50.5 25.9988H44.2404L39.2328 18.4206H35.164L35.164 25.9988H29.5303ZM34.851 13.3685V7.68496H41.7366C45.4924 7.68496 45.4924 13.3685 41.7366 13.3685H34.851Z" fill="#DCE1EB"/>
<path fill-rule="evenodd" clip-rule="evenodd" d="M14.9114 1.00104C21.8633 1.08841 27.5 6.59701 27.5 13.5C27.5 20.403 21.8633 25.9116 14.9114 25.999C7.86976 26.0875 2 20.492 2 13.5C2 6.50795 7.86976 0.912536 14.9114 1.00104ZM8.13291 13.5C8.13291 9.78301 11.1677 6.76979 14.9114 6.76979C18.655 6.76979 21.6899 9.78301 21.6899 13.5C21.6899 17.217 18.655 20.2302 14.9114 20.2302C11.1677 20.2302 8.13291 17.217 8.13291 13.5Z" fill="#DCE1EB"/>
</svg>
