<svg width="24" height="24" viewBox="0 0 24 24" fill="none" xmlns="http://www.w3.org/2000/svg">
<path d="M4.68464 21.5948C4.10069 21.5948 3.60157 21.3802 3.18727 20.9508C2.77297 20.5215 2.56583 20.0208 2.56583 19.4489V8.12333C2.31941 8.01852 2.09756 7.8115 1.90027 7.50226C1.70297 7.193 1.60432 6.81372 1.60432 6.3644V3.71792C1.60432 3.14347 1.81147 2.64602 2.22577 2.22556C2.64006 1.80509 3.13919 1.59485 3.72314 1.59485H19.4764C20.0522 1.59485 20.5508 1.80509 20.9722 2.22556C21.3936 2.64602 21.6043 3.14347 21.6043 3.71792V6.3644C21.6043 6.81372 21.5042 7.193 21.3039 7.50226C21.1035 7.8115 20.8832 8.01852 20.6428 8.12333V19.4489C20.6428 20.0208 20.4321 20.5215 20.0107 20.9508C19.5893 21.3802 19.0907 21.5948 18.5149 21.5948L4.68464 21.5948ZM4.68464 8.48744V19.4808H18.5149V8.48744H4.68464ZM19.4764 6.3644V3.71792H3.72314V6.3644H19.4764ZM9.39425 13.2633H13.809C14.0593 13.2633 14.2692 13.179 14.4386 13.0104C14.608 12.8419 14.6926 12.6331 14.6926 12.384C14.6926 12.1297 14.608 11.9183 14.4386 11.7499C14.2692 11.5814 14.0593 11.4972 13.809 11.4972H9.39425C9.14029 11.4972 8.93042 11.5814 8.76466 11.75C8.5989 11.9185 8.51601 12.1303 8.51601 12.3853C8.51601 12.6364 8.5989 12.8456 8.76466 13.0127C8.93042 13.1797 9.14029 13.2633 9.39425 13.2633Z" fill="#A4B0C3"/>
</svg>
